<svg xmlns="http://www.w3.org/2000/svg" id="export" class="canvas" preserveAspectRatio="xMidYMid meet" style="" width="119" height="365"><rect id="background" fill="#fff" pointer-events="all" width="119" height="365"/><g id="origin" transform="translate(5.38359375, 5.38359375) scale(1)"><g id="clusters" class="clusters"/><g id="edge-paths" class="edge-paths"><defs><marker id="arrowhead" viewBox="0 0 10 10" refX="9" refY="5" markerUnits="strokeWidth" markerWidth="8" markerHeight="6" orient="auto" style="fill: rgb(0, 0, 0);"><path d="M 0 0 L 10 5 L 0 10 L 4 5 z" style="stroke-width: 1;"/></marker><marker id="arrowhead-select" viewBox="0 0 10 10" refX="9" refY="5" markerUnits="strokeWidth" markerWidth="8" markerHeight="6" orient="auto" style="fill: rgba(238, 0, 0, 0.9);"><path d="M 0 0 L 10 5 L 0 10 L 4 5 z" style="stroke-width: 1;"/></marker><marker id="arrowhead-hover" viewBox="0 0 10 10" refX="9" refY="5" markerUnits="strokeWidth" markerWidth="8" markerHeight="6" orient="auto" style="fill: rgba(238, 0, 0, 0.9);"><path d="M 0 0 L 10 5 L 0 10 L 4 5 z" style="stroke-width: 1;"/></marker></defs><path id="edge-onnx::Flatten_0" class="edge-path" d="M47.59375,21L47.59375,22.666666666666668C47.59375,24.333333333333332,47.59375,27.666666666666668,47.59375,32.833333333333336C47.59375,38,47.59375,45,47.59375,52C47.59375,59,47.59375,66,47.59375,71.16666666666667C47.59375,76.33333333333333,47.59375,79.66666666666667,47.59375,81.33333333333333L47.59375,83" style="stroke: rgb(0, 0, 0); stroke-width: 1px; fill: none; marker-end: url(&quot;#arrowhead&quot;);"/><path class="edge-path-hit-test" d="M47.59375,21L47.59375,22.666666666666668C47.59375,24.333333333333332,47.59375,27.666666666666668,47.59375,32.833333333333336C47.59375,38,47.59375,45,47.59375,52C47.59375,59,47.59375,66,47.59375,71.16666666666667C47.59375,76.33333333333333,47.59375,79.66666666666667,47.59375,81.33333333333333L47.59375,83" style="pointer-events: stroke; stroke-width: 0.5em; fill: none; stroke: rgb(0, 0, 0); stroke-opacity: 0.001;"/><path id="edge-/layers/layers.0/Flatten_output_0" class="edge-path" d="M47.59375,104L47.59375,105.66666666666667C47.59375,107.33333333333333,47.59375,110.66666666666667,47.59375,114C47.59375,117.33333333333333,47.59375,120.66666666666667,47.59375,122.33333333333333L47.59375,124" style="stroke: rgb(0, 0, 0); stroke-width: 1px; fill: none; marker-end: url(&quot;#arrowhead&quot;);"/><path class="edge-path-hit-test" d="M47.59375,104L47.59375,105.66666666666667C47.59375,107.33333333333333,47.59375,110.66666666666667,47.59375,114C47.59375,117.33333333333333,47.59375,120.66666666666667,47.59375,122.33333333333333L47.59375,124" style="pointer-events: stroke; stroke-width: 0.5em; fill: none; stroke: rgb(0, 0, 0); stroke-opacity: 0.001;"/><path id="edge-/layers/layers.1/Gemm_output_0" class="edge-path" d="M47.59375,177L47.59375,178.66666666666666C47.59375,180.33333333333334,47.59375,183.66666666666666,47.59375,187C47.59375,190.33333333333334,47.59375,193.66666666666666,47.59375,195.33333333333334L47.59375,197" style="stroke: rgb(0, 0, 0); stroke-width: 1px; fill: none; marker-end: url(&quot;#arrowhead&quot;);"/><path class="edge-path-hit-test" d="M47.59375,177L47.59375,178.66666666666666C47.59375,180.33333333333334,47.59375,183.66666666666666,47.59375,187C47.59375,190.33333333333334,47.59375,193.66666666666666,47.59375,195.33333333333334L47.59375,197" style="pointer-events: stroke; stroke-width: 0.5em; fill: none; stroke: rgb(0, 0, 0); stroke-opacity: 0.001;"/><path id="edge-/layers/layers.2/Relu_output_0" class="edge-path" d="M47.59375,218L47.59375,219.66666666666666C47.59375,221.33333333333334,47.59375,224.66666666666666,47.59375,228C47.59375,231.33333333333334,47.59375,234.66666666666666,47.59375,236.33333333333334L47.59375,238" style="stroke: rgb(0, 0, 0); stroke-width: 1px; fill: none; marker-end: url(&quot;#arrowhead&quot;);"/><path class="edge-path-hit-test" d="M47.59375,218L47.59375,219.66666666666666C47.59375,221.33333333333334,47.59375,224.66666666666666,47.59375,228C47.59375,231.33333333333334,47.59375,234.66666666666666,47.59375,236.33333333333334L47.59375,238" style="pointer-events: stroke; stroke-width: 0.5em; fill: none; stroke: rgb(0, 0, 0); stroke-opacity: 0.001;"/><path id="edge-8" class="edge-path" d="M47.59375,291L47.59375,294.5C47.59375,298,47.59375,305,47.59375,312C47.59375,319,47.59375,326,47.59375,329.5L47.59375,333" style="stroke: rgb(0, 0, 0); stroke-width: 1px; fill: none; marker-end: url(&quot;#arrowhead&quot;);"/><path class="edge-path-hit-test" d="M47.59375,291L47.59375,294.5C47.59375,298,47.59375,305,47.59375,312C47.59375,319,47.59375,326,47.59375,329.5L47.59375,333" style="pointer-events: stroke; stroke-width: 0.5em; fill: none; stroke: rgb(0, 0, 0); stroke-opacity: 0.001;"/></g><g id="edge-labels" class="edge-labels"><text class="edge-label" id="edge-label-edge-onnx::Flatten_0" transform="translate(52.59375,46)" style="opacity: 1; font-family: -apple-system, BlinkMacSystemFont, &quot;Segoe WPC&quot;, &quot;Segoe UI&quot;, Ubuntu, &quot;Droid Sans&quot;, sans-serif, &quot;PingFang SC&quot;; font-size: 10px;"><tspan xml:space="preserve" dy="1em" x="1">1×1×28×28</tspan></text><text class="edge-label" id="edge-label-edge-8" transform="translate(52.59375,306)" style="opacity: 1; font-family: -apple-system, BlinkMacSystemFont, &quot;Segoe WPC&quot;, &quot;Segoe UI&quot;, Ubuntu, &quot;Droid Sans&quot;, sans-serif, &quot;PingFang SC&quot;; font-size: 10px;"><tspan xml:space="preserve" dy="1em" x="1">1×10</tspan></text></g><g id="nodes" class="nodes"><g id="input-name-onnx::Flatten_0" class="node graph-input" transform="translate(0,0)" style=""><g class="node-item graph-item-input" transform="translate(0,0)"><path d="M5,0h85.1875a5,5 0 0 1 5,5v11a5,5 0 0 1 -5,5h-85.1875a5,5 0 0 1 -5,-5v-11a5,5 0 0 1 5,-5z" style="stroke: rgb(0, 0, 0); fill: rgb(238, 238, 238); stroke-width: 0;"/><text x="6" y="15" style="font-family: -apple-system, BlinkMacSystemFont, &quot;Segoe WPC&quot;, &quot;Segoe UI&quot;, Ubuntu, &quot;Droid Sans&quot;, sans-serif, &quot;PingFang SC&quot;; font-size: 11px; text-rendering: geometricprecision; user-select: none;">onnx::Flatten_0</text><title>float32[1,1,28,28]</title></g><path class="node node-border" d="M5,0h85.1875a5,5 0 0 1 5,5v11a5,5 0 0 1 -5,5h-85.1875a5,5 0 0 1 -5,-5v-11a5,5 0 0 1 5,-5z" style="stroke: rgb(51, 51, 51); fill: none; stroke-width: 1px;"/></g><g id="node-name-/layers/layers.0/Flatten" class="node graph-node" transform="translate(22.484375,83)" style=""><g class="node-item node-item-type node-item-type-shape" transform="translate(0,0)"><path d="M5,0h40.21875a5,5 0 0 1 5,5v11a5,5 0 0 1 -5,5h-40.21875a5,5 0 0 1 -5,-5v-11a5,5 0 0 1 5,-5z" style="stroke: rgb(0, 0, 0); fill: rgb(108, 79, 71); stroke-width: 0;"/><text x="6" y="15" style="font-family: -apple-system, BlinkMacSystemFont, &quot;Segoe WPC&quot;, &quot;Segoe UI&quot;, Ubuntu, &quot;Droid Sans&quot;, sans-serif, &quot;PingFang SC&quot;; font-size: 11px; text-rendering: geometricprecision; user-select: none; fill: rgb(255, 255, 255);">Flatten</text><title>/layers/layers.0/Flatten</title></g><path class="node node-border" d="M5,0h40.21875a5,5 0 0 1 5,5v11a5,5 0 0 1 -5,5h-40.21875a5,5 0 0 1 -5,-5v-11a5,5 0 0 1 5,-5z" style="stroke: rgb(51, 51, 51); fill: none; stroke-width: 1px;"/></g><g id="node-name-/layers/layers.1/Gemm" class="node graph-node" transform="translate(10.09375,124)" style=""><g class="node-item node-item-type node-item-type-layer" transform="translate(0,0)"><path d="M5,0h65a5,5 0 0 1 5,5v16a0,0 0 0 1 0,0h-75a0,0 0 0 1 0,0v-16a5,5 0 0 1 5,-5z" style="stroke: rgb(0, 0, 0); fill: rgb(51, 85, 136); stroke-width: 0;"/><text x="6" y="15" style="font-family: -apple-system, BlinkMacSystemFont, &quot;Segoe WPC&quot;, &quot;Segoe UI&quot;, Ubuntu, &quot;Droid Sans&quot;, sans-serif, &quot;PingFang SC&quot;; font-size: 11px; text-rendering: geometricprecision; user-select: none; fill: rgb(255, 255, 255);">Gemm</text><title>/layers/layers.1/Gemm</title></g><g class="node-argument-list" transform="translate(0,21)"><path d="M0,0h75a0,0 0 0 1 0,0v27a5,5 0 0 1 -5,5h-65a5,5 0 0 1 -5,-5v-27a0,0 0 0 1 0,0z" style="stroke: rgb(0, 0, 0); fill: rgb(255, 255, 255); stroke-width: 0;"/><g class="node-argument"><rect rx="3" ry="3" x="3" y="3" width="69" height="13" style="fill: transparent;"/><text xml:space="preserve" x="6" y="13" style="font-family: -apple-system, BlinkMacSystemFont, &quot;Segoe WPC&quot;, &quot;Segoe UI&quot;, Ubuntu, &quot;Droid Sans&quot;, sans-serif, &quot;PingFang SC&quot;; font-size: 9px; font-weight: normal; text-rendering: geometricprecision; user-select: none;"><title>float32[20,784]</title><tspan style="font-weight: bold;">B</tspan><tspan>〈20×784〉</tspan></text></g><g class="node-argument"><rect rx="3" ry="3" x="3" y="16" width="69" height="13" style="fill: transparent;"/><text xml:space="preserve" x="6" y="26" style="font-family: -apple-system, BlinkMacSystemFont, &quot;Segoe WPC&quot;, &quot;Segoe UI&quot;, Ubuntu, &quot;Droid Sans&quot;, sans-serif, &quot;PingFang SC&quot;; font-size: 9px; font-weight: normal; text-rendering: geometricprecision; user-select: none;"><title>float32[20]</title><tspan style="font-weight: bold;">C</tspan><tspan>〈20〉</tspan></text></g><line class="node" x1="0" x2="75" y1="0" y2="0" style="stroke: rgb(51, 51, 51); fill: none; stroke-width: 1px;"/></g><path class="node node-border" d="M5,0h65a5,5 0 0 1 5,5v43a5,5 0 0 1 -5,5h-65a5,5 0 0 1 -5,-5v-43a5,5 0 0 1 5,-5z" style="stroke: rgb(51, 51, 51); fill: none; stroke-width: 1px;"/></g><g id="node-name-/layers/layers.2/Relu" class="node graph-node" transform="translate(29.203125,197)" style=""><g class="node-item node-item-type node-item-type-activation" transform="translate(0,0)"><path d="M5,0h26.78125a5,5 0 0 1 5,5v11a5,5 0 0 1 -5,5h-26.78125a5,5 0 0 1 -5,-5v-11a5,5 0 0 1 5,-5z" style="stroke: rgb(0, 0, 0); fill: rgb(112, 41, 33); stroke-width: 0;"/><text x="6" y="15" style="font-family: -apple-system, BlinkMacSystemFont, &quot;Segoe WPC&quot;, &quot;Segoe UI&quot;, Ubuntu, &quot;Droid Sans&quot;, sans-serif, &quot;PingFang SC&quot;; font-size: 11px; text-rendering: geometricprecision; user-select: none; fill: rgb(255, 255, 255);">Relu</text><title>/layers/layers.2/Relu</title></g><path class="node node-border" d="M5,0h26.78125a5,5 0 0 1 5,5v11a5,5 0 0 1 -5,5h-26.78125a5,5 0 0 1 -5,-5v-11a5,5 0 0 1 5,-5z" style="stroke: rgb(51, 51, 51); fill: none; stroke-width: 1px;"/></g><g id="node-name-/layers/layers.3/Gemm" class="node graph-node" transform="translate(10.09375,238)" style=""><g class="node-item node-item-type node-item-type-layer" transform="translate(0,0)"><path d="M5,0h65a5,5 0 0 1 5,5v16a0,0 0 0 1 0,0h-75a0,0 0 0 1 0,0v-16a5,5 0 0 1 5,-5z" style="stroke: rgb(0, 0, 0); fill: rgb(51, 85, 136); stroke-width: 0;"/><text x="6" y="15" style="font-family: -apple-system, BlinkMacSystemFont, &quot;Segoe WPC&quot;, &quot;Segoe UI&quot;, Ubuntu, &quot;Droid Sans&quot;, sans-serif, &quot;PingFang SC&quot;; font-size: 11px; text-rendering: geometricprecision; user-select: none; fill: rgb(255, 255, 255);">Gemm</text><title>/layers/layers.3/Gemm</title></g><g class="node-argument-list" transform="translate(0,21)"><path d="M0,0h75a0,0 0 0 1 0,0v27a5,5 0 0 1 -5,5h-65a5,5 0 0 1 -5,-5v-27a0,0 0 0 1 0,0z" style="stroke: rgb(0, 0, 0); fill: rgb(255, 255, 255); stroke-width: 0;"/><g class="node-argument"><rect rx="3" ry="3" x="3" y="3" width="69" height="13" style="fill: transparent;"/><text xml:space="preserve" x="6" y="13" style="font-family: -apple-system, BlinkMacSystemFont, &quot;Segoe WPC&quot;, &quot;Segoe UI&quot;, Ubuntu, &quot;Droid Sans&quot;, sans-serif, &quot;PingFang SC&quot;; font-size: 9px; font-weight: normal; text-rendering: geometricprecision; user-select: none;"><title>float32[10,20]</title><tspan style="font-weight: bold;">B</tspan><tspan>〈10×20〉</tspan></text></g><g class="node-argument"><rect rx="3" ry="3" x="3" y="16" width="69" height="13" style="fill: transparent;"/><text xml:space="preserve" x="6" y="26" style="font-family: -apple-system, BlinkMacSystemFont, &quot;Segoe WPC&quot;, &quot;Segoe UI&quot;, Ubuntu, &quot;Droid Sans&quot;, sans-serif, &quot;PingFang SC&quot;; font-size: 9px; font-weight: normal; text-rendering: geometricprecision; user-select: none;"><title>float32[10]</title><tspan style="font-weight: bold;">C</tspan><tspan>〈10〉</tspan></text></g><line class="node" x1="0" x2="75" y1="0" y2="0" style="stroke: rgb(51, 51, 51); fill: none; stroke-width: 1px;"/></g><path class="node node-border" d="M5,0h65a5,5 0 0 1 5,5v43a5,5 0 0 1 -5,5h-65a5,5 0 0 1 -5,-5v-43a5,5 0 0 1 5,-5z" style="stroke: rgb(51, 51, 51); fill: none; stroke-width: 1px;"/></g><g class="node" transform="translate(37.046875,333)" style=""><g class="node-item graph-item-output" transform="translate(0,0)"><path d="M5,0h11.09375a5,5 0 0 1 5,5v11a5,5 0 0 1 -5,5h-11.09375a5,5 0 0 1 -5,-5v-11a5,5 0 0 1 5,-5z" style="stroke: rgb(0, 0, 0); fill: rgb(238, 238, 238); stroke-width: 0;"/><text x="6" y="15" style="font-family: -apple-system, BlinkMacSystemFont, &quot;Segoe WPC&quot;, &quot;Segoe UI&quot;, Ubuntu, &quot;Droid Sans&quot;, sans-serif, &quot;PingFang SC&quot;; font-size: 11px; text-rendering: geometricprecision; user-select: none;">8</text><title>float32[1,10]</title></g><path class="node node-border" d="M5,0h11.09375a5,5 0 0 1 5,5v11a5,5 0 0 1 -5,5h-11.09375a5,5 0 0 1 -5,-5v-11a5,5 0 0 1 5,-5z" style="stroke: rgb(51, 51, 51); fill: none; stroke-width: 1px;"/></g></g></g></svg>